<?xml version="1.0" standalone="no"?>
<!DOCTYPE svg PUBLIC "-//W3C//DTD SVG 20010904//EN"
 "http://www.w3.org/TR/2001/REC-SVG-20010904/DTD/svg10.dtd">
<svg version="1.0" xmlns="http://www.w3.org/2000/svg"
 width="1104.000000pt" height="1104.000000pt" viewBox="0 0 1104.000000 1104.000000"
 preserveAspectRatio="xMidYMid meet">
<metadata>
Created by potrace 1.14, written by Peter Selinger 2001-2017
</metadata>
<g transform="translate(0.000000,1104.000000) scale(0.100000,-0.100000)"
fill="#000000" stroke="none">
<path d="M6720 11025 c-282 -46 -585 -161 -859 -327 -34 -21 -65 -38 -67 -38
-5 0 -238 -152 -244 -160 -3 -3 -27 -22 -55 -41 -27 -18 -84 -61 -126 -94 -42
-33 -92 -72 -111 -87 -19 -15 -46 -37 -60 -50 -14 -13 -46 -41 -72 -63 -139
-118 -362 -340 -571 -569 -29 -31 -85 -97 -125 -146 -19 -23 -46 -55 -60 -69
-14 -15 -25 -29 -25 -32 0 -2 -6 -11 -13 -19 -22 -26 -46 -57 -72 -90 -14 -18
-31 -39 -37 -46 -7 -7 -13 -16 -13 -21 0 -4 -14 -24 -30 -43 -16 -19 -34 -40
-40 -47 -5 -7 -10 -16 -10 -20 0 -7 -25 -40 -62 -83 -7 -9 -19 -28 -27 -43 -8
-15 -22 -36 -33 -46 -10 -11 -18 -23 -18 -26 0 -3 -24 -41 -52 -83 -29 -42
-55 -81 -58 -87 -21 -42 -125 -211 -132 -213 -4 -2 -6 -7 -3 -12 3 -5 0 -14
-7 -22 -7 -7 -28 -42 -46 -78 -41 -82 -65 -123 -75 -131 -5 -3 -8 -9 -8 -13 2
-14 -14 -6 -17 10 -6 28 -63 127 -106 183 -73 97 -200 184 -331 227 -73 24
-234 29 -321 11 -247 -53 -458 -262 -509 -505 -40 -187 11 -412 123 -543 l33
-38 -38 -8 c-21 -4 -40 -7 -43 -8 -3 0 -9 -3 -15 -6 -5 -4 -35 -14 -65 -24
-52 -17 -229 -102 -240 -116 -3 -3 -16 -12 -29 -19 -14 -7 -30 -17 -35 -22
-33 -27 -57 -46 -86 -68 -47 -36 -149 -138 -190 -190 -19 -25 -40 -52 -47 -60
-84 -104 -142 -210 -169 -310 -27 -100 -25 -258 4 -342 34 -98 96 -182 200
-268 6 -6 12 -7 12 -3 0 4 5 0 11 -9 5 -10 16 -18 23 -18 8 0 19 -7 26 -15 7
-8 16 -12 21 -9 5 3 9 0 9 -6 0 -6 5 -8 10 -5 6 3 10 2 10 -3 0 -7 106 -54
130 -57 3 0 11 -4 18 -8 6 -5 17 -5 22 -2 6 3 10 2 10 -3 0 -5 6 -9 13 -10 6
0 23 -3 37 -7 14 -3 32 -8 40 -10 8 -2 16 -4 18 -5 1 -2 11 -4 22 -5 11 -1 21
-3 23 -4 1 -2 13 -5 26 -7 14 -2 27 -7 30 -10 6 -6 -57 -131 -71 -140 -6 -4
-14 -1 -18 6 -4 6 -10 11 -14 10 -4 -1 -17 1 -29 5 -12 4 -28 8 -35 10 -8 2
-21 7 -30 11 -9 4 -23 8 -31 10 -22 4 2 -12 34 -23 17 -6 51 -18 77 -27 l46
-17 -28 -62 c-15 -34 -31 -85 -35 -112 -11 -89 -13 -93 -45 -100 -16 -4 -30
-11 -30 -17 0 -6 -3 -9 -6 -5 -12 12 -75 -69 -89 -115 -16 -55 -11 -106 17
-161 21 -43 22 -42 -42 -108 -22 -23 -64 -48 -115 -69 -44 -18 -85 -36 -91
-41 -6 -5 -14 -6 -17 -2 -4 3 -7 1 -7 -6 0 -7 -4 -10 -9 -6 -5 3 -17 -2 -25
-11 -9 -8 -16 -12 -16 -8 0 3 -7 0 -16 -7 -9 -7 -22 -14 -29 -15 -7 -1 -41
-20 -75 -43 -34 -23 -64 -41 -66 -41 -3 0 -11 -6 -18 -12 -8 -7 -24 -20 -36
-28 -22 -15 -28 -20 -102 -80 -218 -179 -389 -459 -463 -759 -85 -346 -42
-629 136 -896 40 -60 49 -81 49 -117 0 -40 -3 -45 -32 -57 l-33 -13 32 -14
c29 -12 32 -18 37 -71 43 -423 166 -715 412 -973 49 -52 99 -107 110 -121 37
-51 270 -325 334 -394 98 -107 257 -264 340 -337 41 -36 104 -91 140 -123 110
-97 374 -301 500 -385 130 -87 200 -120 258 -120 31 0 47 -9 92 -52 93 -86
183 -113 282 -84 109 32 190 135 192 248 l1 57 50 0 c28 0 62 4 76 9 35 14 79
68 79 97 0 20 6 25 45 31 25 3 57 3 72 -1 46 -11 145 -7 198 10 30 8 87 15
140 14 99 0 245 21 314 45 87 32 189 108 242 181 28 40 99 54 99 20 0 -25 43
-89 88 -133 86 -83 213 -137 342 -146 36 -3 92 -12 125 -20 207 -53 410 3 565
155 68 66 139 192 156 274 2 11 8 21 14 23 6 2 8 8 4 13 -3 5 0 9 5 9 6 0 11
7 11 15 0 8 5 15 10 15 6 0 10 8 10 18 0 10 5 23 11 29 13 13 79 159 86 190 7
32 26 29 92 -16 55 -38 58 -42 57 -80 -1 -23 -4 -41 -7 -41 -5 0 -4 -41 1 -47
2 -2 4 -16 5 -33 1 -16 3 -37 4 -45 2 -21 18 -19 45 8 38 37 134 118 179 150
23 17 44 33 47 36 3 3 39 33 80 66 41 33 83 67 93 75 44 36 57 46 82 64 14 11
35 27 46 37 11 9 35 27 54 40 19 13 35 27 35 32 0 4 6 7 14 7 8 0 16 4 18 8 2
4 34 30 73 58 38 27 83 59 100 71 16 12 45 29 63 39 17 9 32 20 32 25 0 5 4 9
9 9 5 0 49 26 98 59 109 72 302 180 482 269 75 37 139 71 142 75 3 5 9 8 13 8
10 -2 407 189 416 200 3 3 49 28 102 54 87 43 96 50 87 67 -26 49 -10 256 20
266 6 2 11 12 11 22 0 29 109 133 170 162 154 75 318 42 443 -86 30 -31 84
-134 92 -177 8 -39 8 -123 0 -141 -4 -9 -4 -22 0 -28 3 -5 1 -10 -6 -10 -7 0
-10 -3 -6 -6 12 -12 -45 -106 -96 -158 -154 -157 -388 -151 -545 14 l-59 61
-62 -33 c-34 -18 -70 -38 -79 -43 -9 -6 -48 -28 -85 -50 -100 -58 -95 -55
-190 -118 -48 -31 -92 -57 -97 -57 -4 0 -10 -3 -12 -8 -4 -9 -126 -102 -134
-102 -3 0 -12 -6 -19 -13 -26 -23 -41 -34 -70 -53 -56 -35 -124 -87 -213 -162
-77 -65 -127 -106 -170 -140 -68 -55 -119 -100 -232 -202 -21 -19 -62 -55 -91
-80 -68 -60 -153 -136 -205 -185 -23 -22 -84 -78 -134 -125 -126 -115 -300
-290 -300 -300 0 -5 14 -11 30 -15 35 -8 38 -16 10 -33 -11 -7 -20 -17 -20
-22 0 -9 121 63 154 91 6 5 40 28 76 51 36 23 67 45 68 50 2 4 8 8 14 8 6 0
27 13 48 30 21 16 43 30 49 30 6 0 11 4 11 9 0 5 15 16 34 25 18 8 39 22 46
31 7 8 18 15 25 15 8 0 15 4 17 8 2 7 108 69 261 152 50 28 244 124 327 163
41 19 118 55 170 79 83 39 167 72 470 185 36 13 76 29 90 35 26 12 34 15 49
17 5 0 7 9 5 19 -3 9 3 26 13 37 10 11 29 36 41 56 38 62 41 62 115 23 88 -46
187 -75 264 -77 35 -1 63 -5 63 -8 0 -3 -29 -14 -65 -24 -36 -11 -65 -23 -65
-28 0 -4 -4 -6 -9 -3 -9 6 -167 -54 -295 -113 -38 -17 -70 -31 -72 -31 -3 0 4
79 9 102 1 6 -3 12 -9 15 -7 2 -11 -11 -11 -34 -1 -37 -9 -93 -15 -98 -3 -2
-76 -41 -198 -107 -41 -22 -42 -22 -186 -116 -61 -39 -117 -72 -123 -72 -16 0
-119 55 -151 81 l-25 20 45 -2 c25 -1 52 1 60 4 8 3 40 11 70 18 102 22 271
107 338 168 17 16 32 28 32 25 0 -5 32 27 63 63 14 15 -28 1 -155 -53 -95 -41
-186 -80 -203 -89 -16 -8 -82 -39 -145 -70 -63 -31 -119 -60 -123 -64 -8 -8
112 -91 131 -91 4 0 16 -6 27 -13 16 -13 11 -19 -66 -78 -46 -35 -88 -67 -94
-71 -5 -5 -73 -58 -150 -119 -125 -99 -140 -109 -152 -93 -7 9 -10 21 -7 25 3
5 1 9 -5 9 -28 0 -12 40 36 90 95 100 114 124 146 190 17 36 42 76 54 90 13
14 19 26 14 28 -10 3 -225 -107 -383 -197 -21 -11 -54 -30 -73 -41 -44 -25
-268 -171 -275 -179 -3 -4 -88 -61 -190 -128 -158 -103 -313 -193 -334 -193
-3 0 -100 -93 -215 -207 -115 -115 -243 -241 -286 -281 -71 -68 -75 -75 -58
-87 26 -21 36 -19 96 18 89 53 128 86 402 342 29 28 90 84 135 125 45 41 108
100 140 130 105 99 147 133 171 137 42 6 123 34 158 55 l33 21 44 -44 c40 -41
55 -69 36 -69 -5 0 -15 -12 -23 -27 -8 -15 -21 -35 -29 -44 -33 -38 -40 -49
-33 -49 4 0 1 -6 -7 -13 -22 -18 -62 -113 -75 -180 -5 -24 24 -57 50 -57 20 0
238 140 281 181 27 25 35 24 71 -8 17 -16 52 -45 79 -66 l49 -39 22 29 c13 15
29 40 36 56 6 15 15 27 18 27 8 0 4 140 -4 162 -4 10 -9 24 -11 32 -5 14 28
47 114 116 24 19 55 45 68 57 14 13 28 23 31 23 3 0 31 23 61 50 30 27 58 50
62 50 4 0 15 8 25 18 10 10 55 46 101 80 l82 62 58 -6 57 -6 2 -60 c3 -75 48
-172 107 -231 22 -22 70 -54 106 -70 54 -25 78 -30 146 -31 71 0 88 3 145 32
36 17 83 48 105 69 41 39 94 132 94 165 0 10 3 18 8 18 13 0 3 136 -14 185
-43 128 -168 233 -294 247 -19 2 -2 14 75 52 105 51 158 75 240 108 l50 20
-22 -24 c-31 -33 -29 -71 3 -97 39 -31 188 -69 199 -51 3 4 -11 11 -29 14 -38
7 -117 48 -135 70 -8 10 -8 16 2 24 16 14 253 132 264 132 4 0 21 11 38 24 25
20 28 27 19 47 -10 22 -6 27 50 65 54 36 156 126 156 138 0 3 57 93 78 121 4
6 8 17 10 25 2 8 8 17 13 18 5 2 7 7 4 12 -3 5 0 21 6 37 25 67 43 251 26 280
-2 4 -8 31 -11 58 -10 67 -73 198 -128 266 l-46 56 30 54 c107 194 141 263
231 471 7 16 15 28 19 28 5 0 16 7 26 15 9 8 33 29 52 45 31 26 22 32 -15 11
-29 -16 -58 -7 -38 13 4 3 8 12 9 19 2 7 21 64 44 127 23 63 51 147 61 185 11
39 22 77 26 85 3 8 7 22 8 30 2 8 5 24 8 35 49 198 51 210 83 465 14 112 9
303 -9 395 -21 109 -63 252 -83 283 -8 12 -11 22 -7 22 4 0 -6 14 -23 31 -28
30 -29 33 -31 146 -1 68 -6 120 -12 126 -8 8 -10 -21 -6 -106 l4 -117 -27 25
c-15 14 -48 35 -74 47 -27 12 -48 24 -48 27 0 2 26 43 57 90 127 191 222 410
260 598 18 92 25 362 11 493 -20 209 -124 399 -250 460 -104 50 -259 -8 -342
-129 l-28 -39 -29 30 c-16 17 -29 27 -29 23 0 -4 -7 -2 -15 5 -9 7 -34 13 -56
12 -60 -3 -128 -53 -199 -150 -24 -33 -47 -44 -36 -17 3 8 2 15 -3 15 -7 0
-20 43 -21 65 0 3 -7 19 -15 36 -17 32 -12 89 6 89 6 0 7 5 4 10 -3 6 -1 10 5
10 6 0 9 4 5 10 -3 5 -1 17 4 27 11 20 48 117 77 203 11 30 22 56 26 58 4 2 4
10 1 18 -3 8 0 14 7 14 6 0 9 4 6 9 -4 5 -1 22 5 38 6 15 12 37 14 48 10 72
18 93 45 117 17 15 30 32 30 37 0 5 9 13 20 16 11 3 20 10 20 14 0 4 30 23 67
42 96 49 164 50 228 5 26 -19 56 -46 68 -61 12 -15 32 -39 44 -54 13 -14 37
-52 54 -84 34 -64 49 -71 25 -12 -9 20 -13 41 -10 46 3 5 1 9 -5 9 -5 0 -13
10 -17 23 -10 31 -82 136 -113 165 -56 51 -164 79 -231 58 -51 -15 -126 -52
-149 -73 -33 -29 -42 -21 -41 35 1 26 -2 61 -5 77 -3 17 -7 39 -8 50 -1 11 -4
22 -7 25 -3 3 -14 23 -25 45 l-21 41 21 54 c12 30 25 64 30 75 4 11 9 22 9 25
4 20 81 217 88 225 4 5 8 17 8 27 0 10 5 18 11 18 5 0 8 4 5 8 -5 8 11 55 45
137 7 17 13 32 14 35 4 18 29 90 40 115 7 17 23 59 36 95 12 36 27 76 32 90 6
14 11 30 13 35 5 19 154 460 161 475 3 8 7 17 8 20 1 3 14 43 29 90 50 152
133 453 152 550 10 52 21 97 24 100 3 3 5 16 6 30 0 14 8 77 17 140 19 124 24
268 13 340 -4 25 -8 56 -10 70 -4 35 -30 91 -54 117 -40 41 -127 41 -194 0
-30 -19 -138 -112 -237 -207 -24 -23 -139 -153 -184 -210 -76 -93 -267 -395
-259 -408 2 -3 0 -8 -5 -11 -13 -9 -93 -161 -85 -161 4 0 2 -4 -4 -8 -16 -11
-84 -149 -77 -156 4 -3 2 -6 -4 -6 -10 0 -26 -36 -24 -52 1 -5 -3 -8 -9 -8 -5
0 -10 -4 -10 -9 0 -6 -17 -47 -39 -93 -83 -178 -101 -220 -101 -234 0 -8 -5
-14 -11 -14 -6 0 -9 -7 -5 -15 3 -8 1 -15 -4 -15 -6 0 -10 -4 -10 -9 0 -5 -8
-26 -17 -47 -9 -22 -17 -41 -18 -44 0 -3 -4 -11 -8 -17 -5 -7 -5 -13 -1 -13 4
0 0 -8 -9 -18 -9 -10 -18 -28 -20 -40 -2 -12 -6 -25 -10 -28 -4 -4 -7 -16 -7
-26 0 -10 -3 -18 -8 -18 -9 0 -44 -94 -48 -132 -5 -38 15 -36 23 2 3 17 9 30
13 30 3 0 7 6 7 13 0 11 121 298 184 435 16 35 29 68 29 73 0 5 4 9 8 9 5 0 9
6 9 13 0 11 194 409 228 467 8 14 33 59 56 100 66 120 79 142 117 200 64 97
172 240 182 240 5 0 10 6 10 14 0 21 196 205 286 268 150 106 188 92 185 -64
-5 -252 -65 -561 -192 -978 -18 -58 -32 -113 -33 -122 0 -10 -3 -18 -7 -18 -4
0 -10 -15 -14 -32 -4 -18 -9 -35 -10 -38 -1 -3 -4 -12 -8 -20 -14 -35 -120
-376 -121 -390 0 -8 -4 -17 -7 -20 -6 -5 -41 -113 -45 -135 0 -5 -4 -17 -7
-25 -19 -42 -105 -310 -100 -310 3 0 0 -7 -7 -15 -6 -8 -9 -19 -5 -25 3 -5 1
-10 -6 -10 -7 0 -9 -3 -6 -7 4 -3 3 -11 -2 -17 -6 -7 -12 -23 -15 -36 -2 -14
-23 -81 -46 -150 -23 -69 -43 -129 -44 -135 -10 -50 -46 -127 -46 -97 0 7 -7
12 -15 12 -8 0 -15 5 -15 12 0 6 -3 8 -6 5 -4 -3 -15 -2 -26 4 -29 16 -56 21
-136 26 l-72 5 2 32 c5 70 -34 246 -54 246 -5 0 -8 7 -8 15 0 18 -34 69 -91
136 -39 45 -148 127 -189 141 -16 6 -19 -20 -23 -194 -1 -42 -5 -74 -8 -72 -3
2 -7 -27 -7 -64 -1 -68 -6 -130 -17 -237 -4 -33 -8 -76 -10 -95 -2 -19 -7 -55
-10 -80 -4 -25 -8 -59 -9 -76 -2 -17 -6 -36 -10 -43 -5 -7 -6 -15 -3 -18 3 -3
2 -15 -3 -28 -5 -13 -12 -43 -16 -66 -3 -24 -8 -53 -10 -64 -2 -16 -16 -65
-38 -140 -2 -5 -6 -18 -10 -27 -4 -9 -9 -22 -10 -30 -1 -7 -8 -24 -15 -36 -7
-13 -10 -26 -7 -29 3 -3 -2 -12 -10 -20 -8 -8 -12 -19 -9 -24 4 -5 1 -9 -4 -9
-6 0 -11 -4 -11 -9 0 -5 -12 -30 -27 -55 -16 -26 -33 -56 -39 -67 -14 -24 -59
-81 -96 -121 -16 -16 -28 -31 -28 -34 0 -2 -16 -19 -35 -37 -19 -17 -35 -35
-35 -38 0 -9 100 29 119 44 8 7 16 11 17 10 7 -5 64 10 64 16 0 4 8 7 18 8 9
1 39 11 65 22 27 12 55 21 63 21 8 0 14 4 14 8 0 5 6 9 13 9 19 0 151 47 158
56 3 5 9 8 13 7 9 -2 69 11 81 18 11 7 24 10 68 19 15 3 27 8 27 12 0 4 11 8
25 9 13 1 28 2 32 3 45 8 87 -19 76 -49 -13 -36 -65 -97 -120 -142 -70 -56
-151 -110 -164 -110 -5 0 -9 -4 -9 -9 0 -8 -37 -24 -52 -22 -5 1 -8 -3 -8 -7
0 -9 -54 -37 -56 -30 -1 1 -10 -4 -20 -13 -11 -8 -57 -35 -103 -59 -249 -127
-316 -160 -324 -160 -13 0 29 32 81 60 23 13 42 27 42 32 0 4 9 8 19 8 11 0
21 3 23 8 4 10 65 52 76 52 5 0 17 9 27 20 10 11 22 20 27 20 5 0 29 14 53 30
24 17 49 30 55 30 6 0 13 7 16 15 4 8 10 15 15 15 14 0 149 92 149 101 0 5 4
8 8 6 4 -1 35 21 69 48 61 50 82 76 43 55 -11 -6 -20 -9 -20 -7 0 3 -44 -11
-97 -30 -54 -19 -105 -36 -113 -38 -8 -2 -43 -15 -78 -29 -34 -13 -66 -26 -70
-27 -4 -1 -18 -6 -32 -11 -73 -28 -155 -59 -155 -58 0 1 -13 -4 -30 -10 -16
-7 -38 -13 -47 -15 -9 -2 -26 -9 -38 -15 -41 -22 -100 -30 -117 -17 -7 5 -13
6 -13 1 0 -5 -6 2 -13 16 -12 24 -8 30 123 160 74 74 141 144 147 155 7 11 28
46 47 78 20 32 36 63 36 68 0 5 11 32 25 59 14 28 25 51 24 52 -1 2 6 30 16
63 11 33 20 67 21 75 1 8 6 40 13 70 19 91 21 103 27 155 4 28 8 53 10 56 2 4
6 37 9 75 4 38 8 83 11 99 6 34 13 117 18 215 2 36 4 65 5 65 1 0 4 43 6 95 2
52 7 136 9 187 4 79 3 92 -12 98 -28 11 -102 17 -103 8 0 -4 -2 -15 -4 -23 -2
-8 -6 -24 -8 -35 -3 -11 -12 -47 -22 -80 -9 -33 -18 -69 -20 -80 -2 -11 -16
-58 -29 -104 -14 -46 -23 -87 -21 -91 3 -5 1 -10 -4 -12 -6 -1 -12 -16 -15
-31 -3 -16 -10 -43 -16 -61 -6 -18 -13 -44 -16 -57 -3 -13 -6 -28 -7 -34 -2
-5 -6 -16 -10 -22 -5 -7 -6 -13 -2 -13 3 0 1 -9 -5 -21 -11 -20 -21 -53 -22
-76 -1 -7 -6 -13 -11 -13 -6 0 -8 -3 -4 -6 3 -3 -3 -26 -13 -50 -11 -24 -20
-46 -20 -49 -1 -6 0 -4 -45 -135 -20 -58 -38 -109 -39 -115 -4 -15 -12 -35
-65 -171 -17 -44 -31 -86 -31 -92 0 -7 -4 -12 -8 -12 -5 0 -9 -6 -9 -12 0 -7
-9 -33 -20 -58 -22 -50 -36 -82 -37 -90 -1 -3 -11 -25 -23 -50 -24 -50 -83
-189 -88 -205 -1 -5 -8 -26 -16 -45 -7 -19 -12 -39 -11 -43 1 -5 -2 -6 -8 -2
-5 3 -10 1 -10 -6 0 -7 -3 -10 -6 -7 -3 4 0 17 7 30 7 12 14 28 15 33 2 10 78
210 97 255 5 14 10 28 9 33 -1 4 3 7 8 7 5 0 9 3 8 8 -1 4 4 23 11 42 8 19 13
41 12 48 -1 6 4 12 10 12 7 0 10 3 7 6 -4 3 2 24 12 47 21 51 32 79 36 92 1 6
12 37 24 70 19 52 24 67 35 95 1 3 6 20 10 38 4 17 11 32 16 32 5 0 8 3 7 8
-4 14 45 157 56 164 6 4 8 8 4 8 -4 0 6 39 23 88 38 110 38 111 39 117 0 3 6
21 14 40 8 19 12 35 9 35 -3 0 0 6 6 13 6 8 8 17 5 20 -3 3 -2 12 2 19 5 7 10
22 11 32 2 11 8 25 13 31 5 7 7 15 4 18 -3 3 -2 12 2 19 4 7 9 19 10 28 1 8
16 62 34 120 17 58 33 116 36 129 3 14 7 28 10 33 6 9 14 41 18 73 2 11 4 20
5 20 1 0 4 13 6 28 3 21 0 27 -13 25 -15 -3 -17 11 -19 117 -1 66 -5 179 -8
250 -3 72 -6 138 -6 148 0 10 27 64 60 119 34 56 61 105 61 110 0 4 5 8 10 8
6 0 10 5 10 11 0 6 13 29 28 52 16 23 32 55 36 71 6 26 5 28 -9 16 -8 -7 -13
-15 -10 -18 3 -3 -3 -15 -13 -26 -22 -25 -86 -127 -132 -211 -38 -69 -46 -81
-48 -63 -1 7 -3 36 -5 63 -3 28 -7 61 -11 75 -3 14 -8 48 -11 75 -3 28 -8 59
-10 70 -6 26 -17 95 -20 120 -1 11 -5 27 -9 36 -4 9 -6 20 -5 25 1 5 0 11 -1
14 -2 5 -6 22 -13 55 -3 11 -12 47 -21 80 -9 33 -18 67 -20 75 -3 8 -11 35
-19 60 -9 25 -17 54 -19 65 -2 11 -5 22 -8 25 -8 8 -52 114 -53 128 0 6 -5 12
-10 12 -6 0 -8 3 -4 6 3 4 -1 13 -9 21 -8 8 -12 19 -9 24 4 5 1 9 -5 9 -6 0
-9 4 -6 9 4 5 2 11 -3 13 -5 1 -11 10 -13 18 -2 8 -6 19 -11 25 -4 5 -33 51
-64 100 -32 50 -62 95 -68 102 -5 6 -21 26 -35 44 -148 194 -381 333 -660 394
-104 23 -416 29 -530 10z m405 -130 c181 -40 384 -128 484 -209 46 -37 165
-160 195 -201 17 -22 32 -42 35 -45 4 -3 12 -17 20 -32 8 -15 21 -36 30 -46
22 -25 50 -72 62 -104 6 -16 14 -28 18 -28 4 0 14 -18 21 -40 7 -22 17 -40 22
-40 5 0 6 -4 3 -10 -3 -5 -2 -10 3 -10 5 0 9 -6 9 -12 1 -7 16 -47 33 -88 17
-41 34 -86 36 -100 3 -14 9 -27 15 -28 5 -2 7 -8 3 -13 -3 -5 -2 -15 3 -21 4
-7 8 -16 9 -20 1 -5 2 -9 3 -10 2 -2 4 -14 7 -28 2 -14 7 -32 11 -40 3 -8 7
-22 8 -30 2 -8 6 -26 10 -40 3 -14 8 -34 9 -45 2 -11 5 -20 6 -20 3 0 5 -12
13 -70 3 -16 6 -30 7 -30 1 0 3 -13 5 -30 2 -16 6 -43 10 -60 3 -16 8 -46 10
-65 3 -19 7 -53 10 -75 9 -63 15 -126 17 -180 1 -27 5 -52 9 -55 9 -6 -30
-110 -41 -110 -5 0 -9 8 -9 18 0 16 -8 57 -11 57 -2 0 -7 22 -13 50 -2 8 -6
18 -10 21 -4 4 -7 19 -7 34 0 14 -4 30 -9 36 -6 5 -11 21 -13 36 -2 15 -7 30
-11 34 -4 4 -7 14 -7 23 0 9 -14 57 -30 106 -17 50 -32 97 -34 105 -4 14 -39
113 -53 150 -4 8 -7 17 -8 20 -1 3 -7 18 -13 33 -7 15 -15 40 -18 55 -4 15
-10 32 -14 37 -4 6 -16 33 -26 60 -10 28 -24 61 -31 75 -7 14 -13 33 -13 43 0
9 -4 17 -9 17 -5 0 -14 15 -21 33 -6 17 -16 43 -22 57 -5 14 -9 27 -8 29 1 2
-2 7 -7 10 -5 3 -17 22 -26 41 -9 19 -31 58 -47 85 -17 28 -33 58 -36 68 -4 9
-10 17 -14 17 -4 0 -10 8 -14 18 -8 24 -29 56 -43 65 -7 4 -13 13 -13 19 0 27
-210 232 -289 283 -220 141 -516 202 -841 173 l-75 -7 60 15 c176 45 483 54
640 19z m-708 -41 c-3 -3 -12 -4 -19 -1 -8 3 -5 6 6 6 11 1 17 -2 13 -5z m518
-19 c248 -52 396 -128 550 -283 102 -102 108 -109 182 -223 23 -35 45 -68 50
-74 4 -5 19 -32 32 -60 14 -27 32 -58 40 -67 8 -10 11 -18 7 -18 -4 0 3 -15
16 -32 13 -18 21 -33 19 -33 -2 0 6 -22 17 -49 12 -27 22 -52 22 -57 0 -5 4
-9 10 -9 5 0 9 -3 8 -7 -3 -8 36 -114 53 -145 5 -10 9 -25 9 -33 0 -8 5 -15
11 -15 5 0 8 -3 6 -7 -3 -5 0 -19 6 -33 5 -14 11 -29 13 -35 2 -5 21 -59 43
-120 22 -60 41 -118 41 -127 0 -9 5 -20 10 -23 6 -4 8 -11 5 -16 -4 -5 -1 -9
5 -9 6 0 9 -4 6 -9 -4 -5 -1 -22 5 -38 7 -15 14 -39 15 -53 3 -23 3 -24 -6 -3
-25 60 -134 185 -188 217 -11 6 -34 19 -52 30 -18 10 -62 46 -97 81 -99 98
-231 158 -368 169 -64 5 -171 -7 -220 -26 -60 -22 -155 -71 -155 -79 0 -5 -5
-9 -12 -9 -29 0 -188 -196 -181 -222 2 -4 -1 -8 -6 -8 -5 0 -12 -12 -16 -27
-14 -48 -15 -53 -18 -65 -1 -7 -5 -17 -8 -23 -4 -5 -5 -20 -4 -32 1 -13 -1
-23 -5 -23 -3 0 -6 -16 -5 -35 l2 -35 -96 -1 c-99 -1 -129 -3 -139 -13 -3 -3
47 -6 111 -6 73 0 118 -4 123 -11 11 -19 -9 -27 -91 -33 -104 -8 -144 -16
-152 -29 -4 -6 -1 -7 8 -2 12 8 12 6 0 -8 -7 -9 -10 -17 -6 -17 4 0 2 -7 -5
-15 -7 -8 -9 -15 -6 -15 8 0 -23 -58 -41 -78 -7 -7 -13 -17 -13 -21 0 -13 -73
-82 -105 -99 -16 -9 -48 -24 -70 -34 l-40 -17 38 -2 c20 -1 40 -2 45 -3 4 -1
43 -6 87 -10 85 -8 114 -12 213 -27 35 -5 67 -7 73 -4 5 4 9 1 9 -4 0 -6 3
-10 8 -9 12 3 123 -14 119 -19 -6 -5 -340 -16 -522 -16 -209 0 -305 4 -311 15
-3 5 -13 7 -22 4 -19 -6 -45 11 -54 36 -4 9 1 32 11 51 17 34 17 36 -1 51 -10
9 -22 16 -26 16 -8 0 -34 -55 -32 -66 1 -4 -2 -10 -7 -13 -11 -7 -76 -140 -80
-161 -1 -8 -7 -16 -12 -18 -6 -2 -11 -12 -11 -23 0 -10 -5 -19 -11 -19 -6 0
-9 -7 -5 -15 3 -8 1 -15 -5 -15 -6 0 -8 -4 -5 -9 4 -5 1 -11 -4 -13 -6 -2 -12
-10 -14 -18 -1 -8 -8 -25 -14 -37 -7 -13 -10 -23 -6 -23 3 0 1 -6 -5 -13 -6
-8 -8 -17 -4 -20 3 -4 1 -7 -6 -7 -7 0 -9 -4 -6 -10 3 -5 1 -10 -5 -10 -6 0
-8 -4 -5 -10 3 -5 -2 -22 -12 -37 -10 -15 -16 -29 -14 -30 3 -4 -1 -15 -25
-78 -4 -11 -8 -22 -9 -25 -19 -61 -28 -96 -27 -102 1 -5 -2 -8 -8 -8 -5 0 -7
-7 -4 -15 4 -8 1 -15 -6 -15 -6 0 -9 -4 -6 -9 3 -5 -1 -32 -10 -62 -9 -29 -18
-62 -21 -73 -8 -38 -11 -51 -13 -51 -1 0 -3 -9 -5 -20 -2 -11 -6 -31 -10 -45
-7 -27 -9 -42 -19 -105 -4 -22 -9 -51 -12 -65 -17 -75 -33 -266 -39 -460 -2
-69 -6 -159 -8 -200 -2 -41 1 -81 6 -87 5 -7 7 -13 3 -13 -3 0 -1 -12 5 -27 6
-16 12 -54 13 -85 3 -48 0 -60 -18 -76 -12 -10 -28 -18 -36 -17 -8 1 -23 3
-32 3 -27 3 -36 60 -33 197 1 69 -1 127 -4 129 -3 3 -6 25 -5 50 1 25 -2 46
-6 46 -10 0 -1 112 11 126 6 7 12 52 15 101 2 48 6 106 9 128 2 22 6 63 9 90
2 28 7 57 10 65 3 8 7 31 10 50 9 59 16 94 23 115 4 11 7 27 8 35 0 8 4 21 8
28 5 6 5 17 2 22 -3 6 -2 10 3 10 5 0 9 6 9 13 1 20 11 61 21 88 6 15 8 30 5
33 -4 3 -2 6 4 6 5 0 10 6 11 13 1 23 11 56 22 76 6 12 8 21 5 21 -3 0 4 19
16 43 12 23 21 43 21 44 -2 3 5 24 15 51 3 9 7 19 8 22 2 6 18 44 41 95 10 22
17 43 16 48 -1 4 2 7 8 7 5 0 10 4 10 10 0 13 49 118 77 163 13 20 21 37 17
37 -3 0 4 12 15 26 11 15 18 30 15 35 -3 5 0 9 5 9 6 0 11 7 11 15 0 8 5 15
11 15 5 0 7 5 4 10 -3 6 -2 10 3 10 9 0 37 50 34 63 -1 4 2 7 8 7 5 0 10 6 10
13 0 6 9 23 19 36 18 24 18 24 -19 73 -31 41 -52 86 -66 141 -1 4 -3 10 -4 15
-1 4 -2 10 -2 13 1 7 -205 119 -219 119 -10 0 -10 0 -14 55 -5 73 -4 71 -14
56 -5 -7 -7 -29 -6 -47 4 -37 -8 -43 -40 -21 -11 8 -51 31 -90 52 -95 51 -205
128 -252 176 -26 26 -47 62 -62 104 -22 61 -25 64 -52 61 -32 -4 -115 -51
-175 -100 -95 -77 -296 -290 -318 -337 -5 -10 -13 -19 -18 -19 -4 0 -8 -4 -8
-10 0 -5 -11 -25 -24 -45 -13 -19 -23 -43 -21 -53 2 -9 4 -22 4 -28 2 -21 87
-72 155 -93 73 -22 176 -69 342 -154 56 -29 166 -85 245 -126 200 -102 215
-120 88 -100 -41 6 -81 13 -89 16 -8 3 -26 7 -40 9 -14 1 -45 6 -70 10 -25 4
-56 8 -70 10 -14 2 -45 6 -70 9 -253 36 -588 37 -673 2 -28 -12 -37 -11 -72 5
-28 13 -58 18 -100 16 -35 -2 -60 1 -60 7 1 6 10 25 20 43 47 78 165 268 172
277 5 6 40 57 78 115 39 57 76 111 82 120 7 8 51 67 97 130 47 63 89 120 93
125 26 33 129 162 138 171 5 7 24 28 40 48 17 21 41 50 55 65 14 15 41 47 60
71 50 61 335 346 404 405 104 88 161 136 171 143 184 140 316 223 503 317 146
73 297 121 452 144 41 6 86 13 100 15 56 10 329 -3 405 -19z m-1635 -584
c-102 -87 -270 -251 -270 -262 0 -5 -7 -9 -15 -9 -8 0 -15 -4 -15 -8 0 -5 -22
-32 -50 -61 -27 -29 -50 -56 -50 -61 0 -5 -4 -10 -9 -12 -5 -1 -37 -36 -70
-76 -34 -40 -66 -78 -71 -85 -6 -7 -20 -23 -31 -37 -12 -14 -39 -49 -61 -77
-22 -29 -44 -53 -49 -53 -5 0 -9 -5 -9 -11 0 -12 -85 -128 -108 -146 -9 -7
-12 -13 -8 -13 4 0 1 -6 -6 -14 -7 -7 -20 -24 -28 -36 -8 -12 -23 -31 -33 -43
-10 -12 -28 -37 -39 -57 -12 -19 -24 -37 -27 -40 -14 -13 -131 -192 -131 -200
0 -6 -4 -10 -9 -10 -5 0 -14 -13 -21 -30 -7 -16 -16 -30 -21 -30 -5 0 -9 -5
-9 -11 0 -6 -14 -33 -31 -59 -25 -39 -38 -49 -67 -54 -46 -7 -64 -34 -57 -84
6 -35 4 -39 -38 -66 -50 -33 -76 -83 -79 -154 -2 -36 -16 -72 -64 -157 -33
-60 -67 -125 -75 -142 -8 -18 -16 -33 -19 -33 -3 0 -7 -10 -7 -22 -1 -13 -7
-24 -13 -26 -5 -2 -10 -12 -10 -23 0 -10 -4 -19 -8 -19 -5 0 -9 -7 -9 -15 0
-9 4 -12 9 -7 12 12 122 236 120 245 -1 4 1 7 5 7 5 0 21 25 38 55 16 30 32
55 36 55 4 0 10 -19 14 -42 4 -24 15 -62 25 -85 11 -24 17 -43 14 -43 -3 0 1
-6 9 -14 8 -8 36 -14 70 -15 31 0 66 -5 77 -11 11 -6 25 -8 30 -5 6 3 10 2 10
-3 0 -6 10 -12 23 -16 34 -8 118 -82 154 -134 17 -26 29 -49 27 -51 -2 -2 1
-10 6 -17 15 -17 27 -72 31 -139 3 -33 -11 -108 -21 -120 -7 -8 -10 -15 -6
-15 4 0 -5 -20 -19 -45 -27 -49 -83 -110 -126 -139 -26 -16 -27 -16 -33 9 -4
17 -19 31 -41 41 -31 12 -39 12 -69 0 -27 -11 -36 -22 -41 -48 -4 -19 -5 -40
-3 -48 6 -30 -116 -14 -192 25 -52 27 -108 75 -131 112 -12 19 -26 39 -33 46
-7 6 -13 14 -13 17 0 3 -6 23 -13 45 -8 22 -14 72 -14 112 -1 42 -4 65 -9 55
-4 -9 -4 -1 -1 18 4 19 8 85 10 145 4 128 2 122 67 240 28 50 50 96 50 103 0
6 4 12 8 12 4 0 12 12 19 28 6 15 19 41 28 57 71 123 96 171 94 178 -1 4 2 7
6 7 5 0 19 19 32 43 13 23 26 44 29 47 3 3 12 15 19 28 6 12 18 32 25 45 6 12
14 24 17 27 13 13 44 66 42 73 -1 4 2 7 7 7 6 0 16 11 23 23 7 13 31 50 53 82
22 31 47 67 55 79 29 42 94 131 100 136 4 3 26 32 51 65 52 70 62 83 109 140
19 23 51 61 70 84 38 46 37 46 150 170 101 112 261 272 351 351 40 36 80 72
89 80 8 8 40 35 70 59 30 25 60 50 65 56 14 15 79 65 85 65 3 0 -15 -18 -40
-39z m1484 -1166 c2 -6 -21 -8 -68 -5 -71 4 -71 4 -21 10 72 7 84 7 89 -5z
m1390 -37 c-3 -4 0 -8 7 -8 7 0 10 -3 7 -6 -4 -3 -2 -20 4 -37 12 -40 18 -97
9 -97 -3 0 -17 -27 -30 -60 -13 -33 -30 -65 -37 -71 -21 -17 -27 7 -10 43 28
64 42 134 39 203 -1 45 1 65 7 55 5 -8 6 -18 4 -22z m-1389 2 c7 -11 -9 -11
-45 0 -24 8 -24 8 7 9 17 1 35 -3 38 -9z m1482 -183 c2 -56 6 -109 9 -117 4
-12 3 -12 -7 -3 -7 7 -13 25 -15 40 -1 15 -3 29 -4 31 -1 1 -3 10 -5 20 -1 9
-4 24 -8 32 -9 24 9 117 21 105 3 -3 7 -51 9 -108z m-31 -62 c3 -16 6 -47 8
-67 l3 -37 -36 23 c-20 13 -40 25 -46 27 -12 5 -7 33 6 37 5 2 9 8 9 14 0 5 8
26 17 45 16 35 17 35 25 12 5 -13 11 -37 14 -54z m-1241 -45 c3 -5 1 -10 -4
-10 -6 0 -11 5 -11 10 0 6 2 10 4 10 3 0 8 -4 11 -10z m-2915 -23 c0 -22 -26
-51 -39 -42 -9 5 -7 13 10 31 26 28 29 29 29 11z m4043 6 c4 -3 3 -11 -1 -17
-17 -22 -60 -134 -55 -140 4 -3 0 -6 -7 -6 -7 0 -11 -3 -7 -6 10 -11 -36 -42
-53 -36 -8 3 -26 14 -39 24 l-23 18 29 17 c17 9 52 47 79 84 47 65 62 77 77
62z m89 -39 c28 -14 47 -29 42 -33 -5 -4 -37 -18 -71 -32 -35 -13 -63 -27 -63
-31 0 -5 -7 -8 -15 -8 -16 0 -20 12 -7 24 4 4 7 11 8 14 1 17 40 92 47 92 4 0
31 -12 59 -26z m55 4 c-3 -8 -6 -5 -6 6 -1 11 2 17 5 13 3 -3 4 -12 1 -19z
m-1238 -20 c8 -18 15 -35 16 -38 7 -19 21 -52 41 -97 13 -29 21 -53 18 -53 -3
0 1 -10 8 -22 6 -13 13 -32 15 -43 2 -10 7 -22 11 -25 7 -5 11 -19 16 -47 1
-7 5 -15 8 -19 4 -3 4 -12 1 -20 -3 -8 -1 -14 4 -14 5 0 10 -6 11 -12 1 -23
12 -67 23 -95 6 -16 10 -29 9 -31 -1 -1 1 -20 5 -42 12 -72 16 -94 20 -135 7
-59 14 -175 20 -300 2 -60 6 -122 9 -137 2 -16 1 -28 -4 -28 -4 0 -8 10 -8 23
1 12 -2 40 -6 62 -13 79 -19 131 -19 163 -1 17 -3 32 -7 32 -3 0 -7 10 -7 23
-2 30 -11 111 -14 115 -1 1 -3 11 -4 22 -1 11 -3 21 -4 23 -12 14 -7 59 7 67
16 9 16 9 1 10 -18 0 -30 21 -34 55 -4 33 -13 74 -19 83 -3 5 -7 19 -10 33 -3
13 -8 38 -12 54 -3 17 -7 36 -7 43 0 6 -5 12 -10 12 -5 0 -7 6 -4 14 3 8 3 17
-1 20 -6 6 -11 24 -16 56 -1 9 -5 20 -9 27 -4 6 -8 23 -9 37 -1 14 -6 26 -10
26 -4 0 -8 10 -8 23 0 12 -7 42 -16 67 -26 73 -33 100 -25 100 3 0 13 -15 20
-32z m-945 -55 c-8 -21 -19 -47 -24 -58 -13 -29 -24 -69 -22 -77 1 -5 -3 -8
-10 -8 -6 0 -9 -3 -5 -6 3 -4 0 -19 -8 -34 -8 -15 -11 -30 -8 -34 4 -3 1 -6
-6 -6 -7 0 -10 -4 -6 -9 3 -5 1 -12 -5 -16 -6 -4 -8 -11 -5 -16 4 -5 2 -9 -4
-9 -6 0 -8 -7 -5 -15 4 -8 1 -15 -5 -15 -6 0 -11 -11 -11 -24 0 -14 -5 -28
-10 -31 -6 -4 -8 -10 -5 -15 3 -5 1 -11 -5 -15 -6 -4 -8 -11 -5 -16 4 -5 1 -9
-5 -9 -6 0 -9 -4 -6 -9 4 -5 -2 -29 -12 -53 -11 -23 -17 -50 -15 -58 4 -13 3
-13 -5 -1 -7 9 -7 23 -1 39 5 13 7 28 3 33 -3 5 -1 9 4 9 5 0 9 6 9 13 3 48 8
77 15 77 4 0 8 7 8 15 0 9 9 34 20 57 11 22 17 44 15 48 -3 4 2 13 10 20 8 7
13 16 10 20 -3 5 -1 11 5 15 6 4 8 11 5 16 -4 5 -1 9 4 9 6 0 11 6 11 14 0 8
13 43 29 78 16 35 31 70 33 78 2 12 17 29 25 30 1 0 -5 -17 -13 -37z m-654
-63 c13 -8 13 -10 -2 -10 -9 0 -20 5 -23 10 -8 13 5 13 25 0z m482 -16 c-24
-17 -39 -14 -27 5 3 6 16 11 28 11 l21 0 -22 -16z m3236 -523 c17 -5 32 -7 32
-3 0 4 4 2 8 -3 4 -6 20 -16 35 -23 15 -6 30 -19 34 -27 3 -9 -11 -69 -32
-133 -21 -64 -38 -124 -39 -132 0 -8 -4 -17 -8 -20 -4 -3 -9 -17 -12 -30 -2
-14 -30 -97 -61 -185 -32 -88 -57 -166 -58 -172 0 -7 -4 -13 -8 -13 -7 0 -24
-38 -39 -85 -5 -17 -10 -13 -30 25 -13 25 -23 48 -22 53 1 4 -2 7 -8 7 -5 0
-10 6 -10 13 0 6 -10 24 -23 38 -12 15 -33 41 -47 59 -14 18 -43 49 -64 69
-22 20 -47 43 -55 51 -9 8 -29 23 -45 33 l-28 19 52 34 c65 43 123 97 158 149
15 22 29 42 32 45 12 12 30 51 30 65 0 8 4 15 9 15 8 0 19 37 28 94 10 66 16
71 79 69 33 -1 74 -6 92 -12z m237 -231 c11 -33 18 -84 18 -130 l0 -75 -143
-145 c-112 -115 -139 -138 -128 -110 8 19 39 96 69 170 30 74 56 137 59 140 3
3 6 12 8 20 1 8 19 59 40 112 41 109 48 110 77 18z m-20 -421 c-26 -102 -126
-385 -159 -446 l-12 -24 -14 28 c-19 37 -89 134 -111 153 -16 15 -14 19 33 70
124 138 271 290 275 286 2 -2 -3 -32 -12 -67z m-6482 -62 c-15 -19 -29 -33
-30 -32 -2 1 3 16 9 33 8 20 19 32 31 32 17 0 15 -4 -10 -33z m-307 -44 c-46
-166 -58 -194 -82 -203 -14 -6 -30 -8 -35 -4 -5 3 -9 1 -9 -4 0 -5 -15 -13
-32 -17 -18 -4 -35 -9 -38 -10 -3 -1 -16 -6 -30 -12 -14 -6 -42 -18 -62 -26
-20 -8 -39 -13 -42 -9 -3 3 -6 0 -6 -6 0 -7 -5 -12 -11 -12 -6 0 -26 -7 -45
-16 -19 -9 -37 -15 -39 -12 -6 5 126 156 137 157 4 1 21 13 37 29 57 53 94 80
146 107 17 9 46 24 65 35 44 24 53 24 46 3z m1107 -262 c4 -1 3 -10 -3 -21 -8
-15 -18 -18 -43 -14 -28 4 -83 10 -157 18 -14 2 -41 4 -60 6 l-35 2 29 7 c22
4 207 6 269 2z m574 -5 c4 -3 2 -6 -4 -6 -6 0 -16 -13 -22 -28 -11 -27 -16
-29 -71 -30 -33 0 -60 3 -60 7 0 5 -3 21 -6 37 l-6 29 82 -1 c44 -1 84 -4 87
-8z m343 -6 c0 -3 51 -7 113 -8 61 -2 136 -4 164 -5 29 -1 53 -5 53 -9 0 -10
-8 -11 -320 -23 -68 -2 -130 -7 -137 -9 -10 -4 -53 41 -53 56 0 1 41 3 90 3
50 0 90 -2 90 -5z m374 -18 c2 -4 -5 -9 -17 -9 -17 -2 -19 0 -7 7 18 12 18 12
24 2z m-1104 -72 c94 -50 115 -183 42 -266 -19 -23 -82 -59 -82 -48 0 4 -6 1
-14 -5 -44 -37 -196 51 -196 114 0 9 -4 14 -8 11 -5 -3 -5 22 0 55 9 67 44
124 87 141 66 27 118 26 171 -2z m6059 -72 c13 -11 37 -50 53 -84 32 -69 32
-67 41 -134 14 -97 19 -147 18 -200 0 -101 1 -98 -18 -70 -39 58 -149 148
-187 154 -6 1 -16 5 -22 8 -32 21 -175 26 -231 9 -18 -5 -33 -7 -33 -4 0 9 92
142 106 154 11 9 18 8 29 -1 8 -7 15 -17 15 -22 0 -5 10 -19 23 -31 12 -13 30
-34 40 -47 10 -14 16 -20 14 -15 -3 6 -14 30 -25 55 -11 25 -20 49 -21 53 0 4
-7 15 -16 23 -23 24 -19 38 31 93 69 77 140 100 183 59z m-362 -42 l21 -18
-36 -51 c-44 -61 -64 -96 -143 -252 -34 -66 -65 -122 -68 -125 -27 -19 -84
-200 -84 -267 0 -16 -10 -16 -25 -1 -14 14 -16 58 -2 58 5 0 7 7 4 15 -4 8 -1
21 5 29 6 7 8 15 6 18 -14 14 90 378 108 378 6 0 7 3 4 6 -10 10 72 162 109
201 36 38 64 41 101 9z m-1786 -70 c-14 -36 -22 -33 -9 5 6 16 12 28 14 26 3
-2 0 -16 -5 -31z m-136 -154 c-3 -3 -11 0 -18 7 -9 10 -8 11 6 5 10 -3 15 -9
12 -12z m35 -37 c7 -9 8 -15 2 -15 -5 0 -12 7 -16 15 -3 8 -4 15 -2 15 2 0 9
-7 16 -15z m-3707 -83 c-53 -51 -120 -76 -235 -87 -25 -2 -50 -5 -55 -6 -4 -1
-10 -1 -13 1 -3 1 -30 3 -60 5 -30 2 -66 6 -80 9 -14 3 -39 7 -57 10 -38 6
-110 25 -138 36 -11 5 -44 16 -72 25 -54 17 -65 28 -38 39 8 3 15 2 15 -2 0
-4 10 -8 23 -9 12 -1 40 -7 62 -12 22 -6 51 -12 65 -14 14 -2 33 -7 43 -12 10
-4 20 -5 23 -2 3 3 19 1 35 -3 99 -29 377 -29 399 -1 3 3 14 8 25 9 11 2 22 8
23 13 2 5 8 9 14 9 13 0 38 26 39 42 1 7 3 5 6 -5 3 -10 -7 -28 -24 -45z
m3757 16 c0 -4 -4 -8 -10 -8 -5 0 -10 7 -10 15 0 8 -4 15 -10 15 -5 0 -10 5
-10 12 0 6 9 3 20 -7 11 -10 20 -22 20 -27z m37 -45 c10 -16 36 -46 58 -69 22
-22 62 -64 88 -92 26 -29 50 -52 52 -52 3 0 20 -15 39 -33 19 -19 53 -49 76
-68 23 -19 56 -46 73 -61 18 -15 37 -28 44 -28 6 0 13 -4 15 -8 3 -7 154 -102
162 -102 2 0 21 -8 42 -17 22 -9 42 -16 47 -15 4 1 7 -3 7 -9 0 -6 7 -9 15 -6
8 4 17 2 19 -2 3 -5 20 -12 38 -16 18 -4 38 -9 43 -11 11 -3 57 -13 95 -21 14
-2 50 -6 80 -8 30 -1 60 -3 67 -4 7 -1 10 -7 7 -15 -6 -14 -103 -15 -166 0
-18 4 -40 8 -48 10 -26 4 -54 12 -85 24 -16 6 -30 11 -30 10 0 -3 -45 15 -105
43 -36 17 -67 31 -70 31 -3 1 -19 11 -37 24 -17 12 -36 22 -42 22 -6 0 -11 5
-11 10 0 6 -4 10 -10 10 -5 0 -18 6 -27 14 -10 8 -54 44 -98 79 -94 76 -335
318 -335 338 0 5 -3 9 -8 9 -4 0 -13 9 -20 20 -7 11 -8 20 -2 20 5 0 17 -12
27 -27z m-862 -63 c3 -5 1 -10 -4 -10 -6 0 -11 5 -11 10 0 6 2 10 4 10 3 0 8
-4 11 -10z m2811 -59 c3 0 18 -10 33 -23 93 -77 77 -231 -29 -288 -25 -14
-119 -22 -135 -12 -5 4 -12 7 -15 7 -33 3 -96 87 -106 140 -8 47 15 106 58
146 23 21 45 36 50 33 4 -3 8 0 8 7 0 7 3 10 6 7 3 -3 17 -3 32 1 16 5 40 2
59 -6 18 -7 35 -13 39 -12z m-3081 -1 c-2 -3 61 -6 141 -7 104 0 142 3 137 11
-3 6 2 3 13 -6 11 -9 28 -16 39 -14 18 3 34 -9 35 -25 0 -8 -7 -8 -150 -12
-69 -1 -130 -6 -137 -10 -6 -4 -14 -3 -18 3 -4 6 -12 7 -18 3 -17 -10 -238
-15 -767 -15 -472 -1 -590 2 -590 12 0 4 6 7 13 7 6 1 41 4 77 8 36 3 90 8
120 9 30 2 55 4 55 6 0 1 29 3 65 5 36 2 106 7 155 10 50 3 125 7 167 8 42 1
79 4 81 7 7 7 586 6 582 0z m768 -5 c-3 -9 -8 -14 -10 -11 -3 3 -2 9 2 15 9
16 15 13 8 -4z m-258 -24 l50 -9 -45 0 c-25 0 -47 -1 -50 -2 -44 -16 -89 -6
-90 20 0 7 73 2 135 -9z m-1865 -31 c0 -5 -5 -10 -11 -10 -5 0 -7 5 -4 10 3 6
8 10 11 10 2 0 4 -4 4 -10z m25 0 c3 -5 1 -10 -4 -10 -6 0 -11 5 -11 10 0 6 2
10 4 10 3 0 8 -4 11 -10z m1693 -88 c17 -42 32 -83 32 -90 0 -6 4 -12 8 -12 5
0 15 -22 24 -50 9 -27 14 -50 12 -50 -6 0 -28 53 -26 63 1 4 -2 7 -7 7 -9 0
-26 48 -23 63 1 4 -2 7 -8 7 -5 0 -9 3 -8 8 1 8 -15 51 -38 96 -16 33 -17 36
-6 36 4 0 22 -35 40 -78z m432 74 c0 -3 -4 -8 -10 -11 -5 -3 -10 -1 -10 4 0 6
5 11 10 11 6 0 10 -2 10 -4z m10 -40 c0 -3 -4 -8 -10 -11 -5 -3 -10 -1 -10 4
0 6 5 11 10 11 6 0 10 -2 10 -4z m10 -56 c0 -5 -4 -10 -10 -10 -5 0 -10 5 -10
10 0 6 5 10 10 10 6 0 10 -4 10 -10z m15 -61 c16 -78 35 -151 46 -170 6 -12 6
-19 0 -19 -9 0 -26 42 -35 90 -3 14 -7 36 -11 50 -3 14 -7 35 -9 47 -3 13 -8
28 -12 35 -5 10 -4 10 5 2 6 -6 14 -21 16 -35z m1768 -20 c6 -22 4 -35 -12
-84 -7 -24 -9 -26 -10 -8 -1 12 -6 25 -12 28 -9 6 -4 57 8 78 8 13 21 7 26
-14z m-5379 -274 c-4 -218 -8 -331 -13 -357 -2 -15 -18 -8 -19 10 -2 20 -1
370 1 484 1 43 5 78 8 78 4 0 5 10 5 23 -3 30 5 42 15 26 4 -8 6 -126 3 -264z
m5478 130 c4 -5 22 -28 41 -50 27 -32 149 -210 181 -262 5 -10 -4 -11 -41 -7
-26 4 -66 7 -88 7 -23 1 -48 8 -58 18 -11 10 -39 28 -63 41 -25 13 -47 32 -50
44 -6 24 7 100 37 219 12 47 13 48 23 25 6 -14 14 -29 18 -35z m-6282 -10 c12
7 3 -155 -10 -170 -4 -5 -11 -35 -14 -65 -4 -30 -9 -67 -11 -82 -14 -77 -16
-105 -20 -253 -2 -88 -4 -163 -4 -167 -1 -5 -10 -8 -21 -8 -17 0 -20 7 -21 48
-2 82 -7 187 -9 197 -1 6 -2 12 0 15 1 3 3 29 5 59 13 199 26 306 46 393 10
43 13 47 30 37 11 -5 24 -7 29 -4z m4478 -62 c2 -10 4 -25 6 -33 1 -9 5 -20 9
-26 6 -10 10 -30 22 -119 2 -16 6 -40 9 -52 3 -13 1 -23 -4 -23 -5 0 -12 21
-15 48 -3 26 -9 58 -12 72 -3 14 -7 34 -9 45 -7 40 -10 50 -16 61 -4 6 -9 23
-12 39 -4 21 -2 25 6 17 7 -7 13 -20 16 -29z m1410 -12 c-8 -12 -18 -18 -21
-14 -4 3 0 15 10 25 21 24 29 15 11 -11z m936 -138 c-76 -145 -104 -193 -115
-193 -6 0 -19 9 -31 20 -12 10 -25 17 -30 14 -4 -3 -8 0 -8 6 0 6 -4 8 -10 5
-5 -3 -10 -1 -10 6 0 7 -3 9 -6 6 -4 -3 -16 -1 -28 5 -11 7 -27 13 -34 14 -8
1 -15 4 -16 6 -1 2 -32 50 -70 107 l-68 103 39 -20 c72 -38 93 -43 193 -44
101 -1 178 20 218 59 34 33 27 4 -24 -94z m-2695 40 c8 -27 18 -54 24 -60 5
-7 6 -13 2 -13 -4 0 -3 -6 2 -12 8 -11 22 -49 27 -78 1 -3 5 -11 9 -17 5 -7 5
-17 2 -23 -3 -5 -1 -10 5 -10 7 0 10 -7 7 -15 -4 -8 -2 -17 2 -19 9 -6 24 -61
24 -88 0 -10 3 -18 8 -18 4 0 6 -9 4 -20 -2 -11 1 -20 7 -20 6 0 9 -2 6 -6 -3
-3 -2 -22 4 -42 5 -20 11 -50 14 -67 3 -16 8 -37 11 -45 5 -14 9 -33 18 -95 1
-11 3 -20 5 -20 1 0 3 -11 5 -25 7 -53 16 -137 19 -177 2 -22 7 -46 10 -52 4
-6 2 -11 -3 -11 -6 0 -12 6 -12 13 -1 6 -3 21 -5 32 -2 11 -6 36 -8 55 -2 19
-7 53 -12 75 -4 22 -7 50 -8 63 0 12 -3 22 -6 22 -3 0 -7 15 -8 33 -5 60 -7
72 -13 77 -4 3 -10 23 -13 45 -9 53 -22 115 -27 125 -1 3 -3 10 -4 15 -2 6 -4
12 -5 15 -1 3 -3 16 -6 29 -2 14 -10 31 -17 40 -10 12 -9 13 3 6 13 -8 13 -7
1 8 -7 9 -10 17 -6 17 4 0 2 7 -5 15 -7 8 -9 15 -5 15 4 0 2 7 -5 15 -6 8 -9
19 -6 24 4 5 2 12 -3 15 -7 5 -23 61 -19 69 1 1 -5 13 -12 27 -7 14 -17 41
-20 60 -4 19 -11 43 -15 53 -4 9 -3 17 2 17 5 0 15 -21 22 -47z m1979 -62
c-13 -15 -26 -26 -30 -24 -5 2 -8 -1 -8 -6 0 -6 -34 -46 -75 -88 -41 -43 -75
-73 -75 -68 0 6 -9 -3 -19 -19 -15 -22 -19 -45 -18 -93 1 -36 -2 -63 -8 -64
-5 0 -4 -3 3 -6 22 -9 13 -20 -15 -17 -16 1 -30 3 -33 4 -3 1 -8 2 -12 1 -14
-2 -58 66 -58 91 0 23 32 68 49 68 4 0 22 13 38 29 25 24 30 35 27 65 -3 20
-1 36 4 36 4 0 7 -12 7 -27 -1 -16 0 -31 2 -35 5 -9 113 71 113 83 0 5 5 9 11
9 7 0 21 10 33 23 19 20 77 66 84 67 2 0 -7 -13 -20 -29z m-223 -42 c0 -21 -4
-39 -8 -39 -4 0 -7 20 -6 45 3 54 13 50 14 -6z m-5707 13 c-7 -9 -19 -23 -25
-30 -7 -7 -18 -21 -25 -30 -15 -20 -68 -46 -68 -33 0 48 15 74 53 90 22 9 48
18 59 18 17 2 18 0 6 -15z m2172 11 c0 -3 -82 -46 -92 -49 -5 -1 -11 -3 -15
-4 -5 -1 -11 -2 -15 -1 -5 0 -8 -3 -8 -8 0 -5 -15 -14 -32 -22 -29 -11 -78
-32 -193 -84 -16 -8 -59 -25 -95 -40 -36 -14 -77 -32 -91 -40 -14 -8 -29 -12
-32 -9 -3 3 -8 0 -13 -7 -4 -7 -3 -10 4 -5 6 3 13 2 17 -3 3 -6 -6 -8 -21 -5
-24 4 -114 -24 -201 -62 -17 -8 -37 -14 -45 -14 -8 0 -19 -5 -26 -12 -7 -7
-12 -9 -12 -5 0 3 -20 -2 -45 -13 -25 -11 -45 -17 -45 -13 0 3 -7 0 -15 -7 -8
-7 -15 -9 -15 -5 0 4 -6 2 -13 -4 -8 -6 -22 -12 -33 -14 -10 -2 -31 -9 -47
-15 -60 -25 -133 -30 -309 -20 -55 3 -85 12 -50 15 9 1 31 7 47 13 17 6 32 12
35 12 3 0 16 5 30 10 14 5 34 12 45 14 29 7 38 10 57 18 9 4 22 8 30 10 7 1
18 5 24 8 6 4 22 9 36 12 15 2 36 9 47 16 12 6 21 8 21 4 0 -3 6 -2 13 4 9 8
57 22 87 27 3 0 10 4 17 8 6 4 23 8 37 9 14 1 26 7 26 12 0 5 3 7 6 4 3 -4 21
0 40 8 19 8 34 11 34 8 0 -4 6 -2 13 4 6 6 17 11 22 12 6 1 9 7 7 13 -2 6 4 5
12 -3 10 -7 16 -8 16 -2 0 6 8 11 18 10 20 0 47 7 83 20 15 6 30 8 33 5 3 -4
6 -2 6 4 0 5 6 10 13 11 12 1 47 9 57 12 3 1 8 2 13 1 4 0 7 4 7 10 0 5 5 7
10 4 6 -3 16 -3 23 2 12 8 32 13 55 15 6 1 12 5 12 10 0 4 3 7 8 6 11 -2 66
14 77 23 6 4 12 7 15 8 8 0 31 7 85 27 28 10 56 19 63 20 8 1 21 6 30 10 9 4
20 8 25 9 4 2 9 4 12 5 3 1 9 3 14 4 5 0 12 3 14 6 5 5 67 8 67 3z m-2110 -13
c0 -5 -4 -10 -10 -10 -5 0 -10 5 -10 10 0 6 5 10 10 10 6 0 10 -4 10 -10z
m-630 -51 c0 -5 -7 -9 -15 -9 -8 0 -15 7 -15 15 0 9 6 12 15 9 8 -4 15 -10 15
-15z m4927 -44 c7 -52 10 -70 12 -70 2 0 4 -8 6 -17 2 -10 -3 -18 -10 -18 -7
0 -12 7 -11 17 2 9 -3 40 -10 70 -8 37 -9 53 -2 51 6 -2 13 -17 15 -33z
m-4737 -14 c0 -4 -10 -19 -22 -33 -13 -14 -42 -47 -64 -74 -23 -27 -50 -59
-60 -71 -24 -28 -40 -47 -89 -108 -22 -27 -42 -52 -46 -55 -3 -3 -18 -23 -34
-45 -17 -22 -32 -42 -36 -45 -3 -3 -29 -36 -57 -75 -28 -38 -55 -75 -60 -80
-5 -6 -17 -24 -28 -40 -10 -17 -21 -32 -24 -35 -8 -7 -75 -102 -85 -120 -4 -8
7 -1 26 15 28 25 30 25 11 4 -23 -26 -22 -59 2 -59 13 0 70 -65 104 -119 83
-133 57 -325 -61 -444 -46 -47 -144 -106 -165 -99 -6 2 -12 0 -12 -5 0 -4 -19
-9 -43 -11 -23 -2 -54 -5 -69 -6 -16 -1 -28 1 -28 4 0 4 -6 7 -12 7 -42 3 -68
8 -68 14 0 4 -9 9 -19 12 -14 3 -22 -2 -30 -22 -31 -80 -91 -361 -91 -426 0
-19 -4 -37 -10 -40 -15 -9 -12 29 10 157 17 101 69 302 84 326 3 5 -3 17 -13
27 -19 16 -20 16 -35 -7 -25 -39 -121 -248 -160 -348 -20 -52 -40 -104 -44
-114 -8 -18 -62 -33 -62 -17 0 34 92 271 166 430 l54 114 -34 51 c-81 122 -91
252 -29 382 24 52 93 134 112 134 6 0 11 5 11 10 0 6 7 10 15 10 8 0 15 5 15
10 0 6 9 10 20 10 11 0 20 5 20 11 0 6 6 9 14 6 7 -3 19 0 25 6 12 12 168 19
186 8 20 -12 31 -6 60 34 16 22 32 42 35 45 3 3 18 23 35 45 16 22 32 42 35
45 3 3 13 14 21 26 17 26 80 102 134 164 35 40 386 398 393 399 1 1 2 -3 2 -8z
m5464 -46 c-4 -8 -8 -15 -10 -15 -2 0 -4 7 -4 15 0 8 4 15 10 15 5 0 7 -7 4
-15z m242 -27 c4 -7 4 -10 -1 -6 -4 4 -14 3 -22 -3 -8 -8 -13 -8 -13 -1 0 6 6
13 13 15 6 3 13 6 14 6 1 1 5 -5 9 -11z m-191 -12 c121 10 145 10 145 3 0 -10
-30 -20 -41 -13 -5 3 -9 2 -9 -3 0 -4 -10 -9 -22 -9 -13 -1 -39 -4 -58 -8 -19
-4 -43 -7 -52 -7 -20 0 -20 0 -24 -89 -4 -88 -11 -175 -14 -175 -2 0 -4 -20
-6 -45 -2 -25 -6 -63 -8 -85 -2 -22 -4 -46 -5 -53 -1 -7 -5 -11 -9 -8 -10 6
-3 200 13 315 3 29 8 71 9 92 l3 38 -41 -3 c-23 -2 -41 -5 -41 -6 0 -3 -110
-11 -187 -13 -43 -1 -78 -4 -78 -7 0 -3 -54 -5 -119 -5 -108 0 -146 5 -88 12
12 1 36 4 52 7 17 3 44 7 60 10 17 2 46 7 65 11 39 7 118 16 165 19 17 1 35 4
40 7 6 3 29 5 53 4 23 -1 45 2 48 7 4 6 10 5 15 -3 5 -8 9 -9 9 -3 0 6 11 10
25 9 14 -2 28 1 31 7 4 7 9 7 13 0 3 -5 29 -8 56 -6z m-750 -58 c12 -78 12
-98 4 -98 -5 0 -9 5 -9 11 0 5 -6 7 -12 3 -10 -6 -10 -4 -2 7 8 11 12 84 4 84
-1 0 -3 8 -5 18 -2 9 1 17 5 17 5 0 12 -19 15 -42z m-2681 -36 c6 -3 17 -7 24
-8 17 -3 27 -12 21 -19 -3 -2 -17 2 -32 10 -15 8 -27 12 -27 9 0 -3 -6 -2 -12
3 -7 4 -19 8 -26 9 -8 2 -17 5 -20 9 -8 8 58 -4 72 -13z m76 -32 c0 -5 -4 -10
-10 -10 -5 0 -10 5 -10 10 0 6 5 10 10 10 6 0 10 -4 10 -10z m17 -12 c-3 -8
-6 -5 -6 6 -1 11 2 17 5 13 3 -3 4 -12 1 -19z m81 -15 c12 -3 22 -10 22 -15 0
-5 5 -6 10 -3 6 3 10 -1 10 -10 0 -15 -2 -15 -22 -1 -12 9 -29 16 -38 16 -8 0
-24 8 -35 17 -19 15 -19 15 5 8 14 -3 35 -9 48 -12z m3863 -10 c13 -16 12 -17
-3 -4 -10 7 -18 15 -18 17 0 8 8 3 21 -13z m-1340 -30 c1 -16 3 -46 5 -68 10
-104 10 -272 0 -290 -21 -39 -41 -60 -61 -63 -18 -3 -18 -2 3 13 42 30 49 61
47 205 -1 74 -3 135 -4 135 -2 0 -4 21 -6 48 -2 26 0 47 5 47 6 0 11 -12 11
-27z m-2401 -28 c0 -7 -29 1 -42 13 -8 6 -18 9 -21 5 -4 -3 -7 -2 -7 4 0 21
14 22 41 2 16 -11 29 -22 29 -24z m127 -60 c21 -14 46 -31 57 -38 10 -6 46
-33 81 -59 34 -26 65 -44 69 -41 3 4 6 -1 6 -10 0 -9 6 -17 14 -17 8 0 17 -7
20 -16 11 -29 -4 -33 -31 -8 -15 13 -40 35 -56 47 -16 12 -37 29 -46 37 -9 8
-44 33 -77 55 -32 22 -65 46 -72 52 -7 7 -20 13 -27 13 -8 0 -17 5 -21 11 -11
19 40 2 83 -26z m-1542 -51 c76 -7 106 -12 112 -17 3 -3 -3 -6 -13 -5 -11 0
-33 -5 -51 -10 -17 -6 -34 -8 -37 -4 -3 3 -6 1 -6 -4 0 -5 -8 -10 -17 -11 -16
-1 -50 -8 -63 -13 -3 -1 -9 -3 -15 -5 -5 -1 -12 -3 -15 -4 -3 -2 -14 -4 -25
-6 -26 -5 -60 -13 -60 -15 0 -2 -20 -7 -59 -15 -16 -3 -33 -8 -36 -10 -9 -5
-70 -18 -92 -19 -10 0 -18 -3 -18 -6 0 -4 -6 -7 -12 -8 -24 -2 -103 -19 -103
-22 0 -1 -9 -3 -20 -5 -11 -2 -30 -6 -42 -9 -13 -3 -31 -8 -40 -10 -10 -2 -26
-8 -37 -12 -14 -5 -17 -3 -14 7 3 8 9 14 14 15 5 0 18 4 29 8 11 4 34 13 50
19 17 7 33 11 38 9 4 -1 7 2 7 8 0 6 3 9 8 8 4 -2 21 2 37 9 59 22 70 26 78
28 4 2 9 4 12 5 3 1 8 3 13 5 4 1 14 5 22 8 24 10 149 54 165 58 2 0 26 9 52
19 26 10 59 16 73 13 14 -3 43 -7 65 -9z m-1790 -66 c-4 -13 -17 -31 -29 -40
-25 -21 -43 -24 -24 -5 7 8 22 26 33 40 24 33 28 34 20 5z m-22 -98 c-55 -42
-73 -56 -94 -70 -12 -8 -31 -23 -41 -32 -13 -13 -18 -14 -18 -5 0 8 11 24 25
37 14 13 25 29 25 37 0 7 4 13 9 13 5 0 16 6 24 14 8 8 29 24 48 35 31 19 34
19 38 4 2 -9 -6 -24 -16 -33z m7204 28 c-3 -8 -6 -5 -6 6 -1 11 2 17 5 13 3
-3 4 -12 1 -19z m-3518 -72 c25 -27 59 -60 75 -75 64 -58 306 -381 306 -409 0
-4 9 -18 19 -29 19 -20 25 -35 22 -60 -2 -23 -29 -14 -44 15 -12 24 -25 47
-69 123 -7 12 -21 32 -30 43 -10 11 -18 25 -18 32 0 7 -3 14 -7 16 -5 2 -37
43 -72 91 -67 94 -123 159 -208 240 -29 28 -50 54 -47 59 9 14 26 4 73 -46z
m-2551 2 c-2 -6 -12 -12 -21 -14 -9 -1 -15 2 -11 7 3 5 10 7 15 4 5 -4 9 -1 9
4 0 6 3 11 6 11 3 0 4 -5 2 -12z m6087 -33 c1 -19 -3 -39 -9 -44 -8 -7 -10 4
-9 37 2 59 2 57 9 49 4 -3 8 -22 9 -42z m-6835 31 c0 -2 -8 -10 -17 -17 -16
-13 -17 -12 -4 4 13 16 21 21 21 13z m-66 -90 c-3 -9 -10 -16 -15 -16 -5 0 -4
9 3 20 14 22 21 20 12 -4z m-670 -28 c-5 -7 -38 -58 -75 -113 -37 -55 -84
-131 -105 -170 -21 -38 -41 -72 -44 -75 -27 -23 -150 -252 -150 -279 0 -11 -7
-13 -35 -13 -8 0 -19 0 -25 1 -32 4 152 373 210 421 3 3 14 16 23 30 23 34
190 209 200 210 5 0 5 -6 1 -12z m7280 -383 c3 -8 1 -15 -4 -15 -6 0 -10 7
-10 15 0 8 2 15 4 15 2 0 6 -7 10 -15z m-1 -66 c-4 -12 0 -19 9 -19 11 0 14
-8 11 -27 -2 -16 -6 -53 -8 -83 -3 -30 -7 -68 -10 -85 -3 -16 -7 -66 -9 -110
-2 -44 -7 -91 -10 -105 -4 -14 -8 -44 -10 -67 -2 -22 -6 -45 -9 -50 -4 -6 -8
-39 -11 -74 -3 -35 -8 -79 -11 -98 -4 -18 -7 -50 -8 -71 -1 -21 -5 -36 -9 -33
-5 2 -6 34 -3 71 3 37 7 119 10 182 5 140 11 205 32 335 8 55 17 134 18 175 3
106 4 108 14 91 5 -7 6 -22 4 -32z m-1526 -44 c0 -21 -6 -36 -15 -40 -11 -4
-12 -2 -5 7 6 7 9 22 7 32 -2 18 2 36 10 36 1 0 3 -16 3 -35z m-1245 -32 c49
-105 78 -173 73 -173 -3 0 2 -11 11 -25 9 -14 13 -25 9 -25 -4 0 -3 -6 2 -12
10 -13 25 -60 28 -89 1 -9 5 -21 9 -28 4 -6 10 -24 13 -39 8 -42 11 -57 13
-57 2 0 6 -24 14 -75 2 -14 5 -25 6 -25 1 0 3 -8 5 -17 4 -23 -28 -63 -44 -54
-6 4 -9 11 -6 16 3 5 1 11 -4 15 -6 3 -8 19 -6 35 2 17 0 30 -4 30 -4 0 -7 10
-8 23 -1 12 -4 36 -8 52 -4 17 -8 39 -10 50 -1 11 -3 20 -4 20 -2 0 -4 8 -6
17 -2 10 -13 50 -26 90 -13 40 -22 76 -21 81 1 4 -2 7 -8 7 -5 0 -9 3 -8 8 4
13 -36 112 -45 112 -4 0 -6 4 -3 8 3 5 -3 22 -13 38 -14 22 -16 34 -8 52 6 12
13 22 16 22 3 0 18 -26 33 -57z m763 -53 c3 -5 1 -10 -4 -10 -6 0 -11 5 -11
10 0 6 2 10 4 10 3 0 8 -4 11 -10z m6 -30 c2 -13 6 -29 9 -32 3 -5 10 -41 14
-78 2 -19 5 -35 6 -35 4 0 11 -158 12 -255 1 -80 -4 -137 -13 -147 -1 -2 -2
-11 -3 -20 -1 -10 -12 -40 -24 -67 -12 -27 -22 -50 -22 -52 0 -10 -66 -97
-109 -144 -60 -64 -69 -56 -11 10 22 25 44 50 49 56 15 19 61 104 56 104 -3 0
1 10 10 23 8 13 12 27 8 30 -3 4 0 7 7 7 7 0 11 3 8 6 -3 3 0 26 6 52 11 43
12 127 4 342 -2 41 -6 80 -9 85 -3 6 -5 24 -4 40 2 17 0 34 -3 40 -9 15 -9 45
0 45 4 0 9 -4 9 -10z m-4425 -162 c-11 -165 -15 -920 -6 -1018 32 -317 114
-580 254 -812 19 -32 31 -58 28 -58 -4 0 -2 -4 4 -8 5 -4 31 -38 57 -77 26
-38 62 -88 82 -110 19 -22 35 -43 35 -47 0 -5 5 -8 10 -8 6 0 30 -18 53 -40
23 -22 56 -51 74 -63 35 -24 51 -57 24 -50 -23 6 -167 115 -220 165 -75 73
-194 239 -266 372 -96 178 -162 384 -196 611 -27 179 -29 489 -4 735 13 128
18 168 41 314 13 88 24 166 24 173 0 7 3 13 6 13 4 0 4 -42 0 -92z m1237 -43
c15 -4 27 -12 27 -18 0 -6 3 -8 6 -5 7 8 51 -37 69 -72 20 -39 19 -113 -2
-158 -26 -55 -93 -97 -158 -99 -128 -3 -223 132 -173 247 16 36 58 90 58 75 0
-5 6 -1 13 9 7 9 22 18 35 19 12 0 22 4 22 8 0 8 64 5 103 -6z m-2578 -116
c-11 -26 -14 -28 -10 -9 2 14 5 34 5 45 0 13 3 16 11 8 7 -7 6 -20 -6 -44z
m5192 -256 c1 -16 5 -68 9 -118 16 -195 6 -385 -26 -530 -8 -33 -13 -63 -12
-67 1 -5 -3 -8 -9 -8 -5 0 -8 -4 -4 -9 3 -5 1 -12 -5 -16 -6 -4 -8 -10 -5 -15
3 -5 1 -17 -4 -27 -5 -10 -20 -45 -33 -78 -12 -33 -27 -63 -31 -66 -5 -3 -8
-9 -8 -13 1 -3 -10 -27 -24 -54 -14 -26 -23 -38 -21 -27 3 11 7 40 10 65 6 61
9 72 24 89 7 7 11 20 8 27 -3 8 0 14 6 14 6 0 9 3 5 6 -3 4 0 18 7 33 7 14 11
32 9 39 -3 6 -1 12 5 12 16 0 32 46 19 59 -8 8 -8 11 2 11 7 0 11 8 10 18 -1
9 0 19 1 22 20 52 29 340 18 550 -3 54 -1 69 16 88 25 29 31 28 33 -5z m2566
-118 c-7 -21 -13 -19 -13 6 0 11 4 18 10 14 5 -3 7 -12 3 -20z m-7373 -36 c0
-5 5 -7 12 -3 11 7 6 -97 -10 -176 -3 -19 -6 -134 -6 -255 0 -187 4 -237 23
-334 27 -135 77 -293 121 -382 31 -60 147 -248 161 -259 3 -3 28 -32 54 -65
143 -178 499 -503 805 -735 207 -158 202 -160 -15 -8 -156 109 -357 266 -439
342 -6 6 -29 26 -51 45 -87 72 -272 261 -340 346 -219 273 -317 499 -360 834
-26 197 -3 661 32 661 7 0 13 -5 13 -11z m7155 -34 c68 -27 118 -143 88 -204
-7 -14 -10 -28 -7 -33 3 -4 -2 -11 -10 -14 -9 -3 -16 -13 -16 -22 0 -8 -3 -12
-6 -9 -4 4 -14 -2 -23 -11 -9 -10 -29 -23 -46 -29 -108 -36 -225 42 -230 154
-7 136 118 220 250 168z m216 -22 c-9 -16 -10 -14 -11 12 0 21 3 26 11 18 8
-8 8 -16 0 -30z m3 -38 c-4 -8 -8 -15 -10 -15 -2 0 -4 7 -4 15 0 8 4 15 10 15
5 0 7 -7 4 -15z m1 -55 c3 -5 1 -10 -4 -10 -6 0 -11 5 -11 10 0 6 2 10 4 10 3
0 8 -4 11 -10z m-2 -66 c-3 -63 -10 -66 -12 -4 0 27 3 50 7 50 4 0 6 -21 5
-46z m-7132 -239 c-4 -27 -6 -26 -12 15 -13 90 -20 210 -12 223 9 14 30 -194
24 -238z m2686 26 c20 -2 74 -63 69 -77 -3 -7 -1 -16 4 -19 12 -7 3 -51 -16
-80 -31 -48 -89 -60 -155 -34 -48 19 -71 110 -40 158 21 33 69 60 100 56 14
-1 31 -3 38 -4z m-3413 -69 l30 -32 -32 0 c-30 0 -32 2 -32 37 0 20 1 34 3 32
1 -2 15 -19 31 -37z m4381 10 c45 -39 50 -64 49 -266 -1 -105 -5 -218 -9 -251
-4 -33 -7 -66 -8 -72 0 -7 -3 -13 -7 -13 -4 0 -7 -16 -8 -35 -1 -20 -5 -41 -9
-48 -4 -6 -8 -18 -9 -27 -4 -25 -13 -60 -18 -68 -3 -5 -7 -22 -10 -38 -3 -16
-10 -30 -16 -32 -5 -2 -8 -7 -5 -11 2 -5 -7 -31 -20 -60 -14 -28 -25 -55 -25
-61 0 -5 -4 -10 -10 -10 -5 0 -9 -3 -8 -7 4 -12 -26 -73 -34 -73 -5 0 -8 -7
-8 -15 0 -8 -4 -15 -10 -15 -5 0 -9 -3 -8 -7 3 -7 -33 -71 -54 -98 -4 -5 -34
-44 -65 -85 -135 -178 -326 -334 -534 -435 l-114 -55 94 5 c52 3 92 3 90 1 -8
-7 -236 -94 -304 -115 -38 -13 -77 -25 -85 -28 -17 -7 -15 -6 -135 -26 -132
-23 -169 -26 -282 -26 -85 -1 -103 -4 -103 -16 0 -8 3 -15 8 -15 4 0 45 -7 92
-16 78 -14 317 -20 438 -11 59 5 43 -5 -70 -41 -152 -50 -224 -64 -357 -71
-121 -6 -124 -7 -128 -30 -13 -85 -131 -199 -243 -236 -297 -98 -583 207 -466
497 14 35 22 65 18 69 -4 4 -72 62 -152 129 -157 132 -370 330 -370 343 0 14
36 -11 92 -65 88 -86 129 -119 138 -113 4 3 19 1 32 -3 79 -30 83 -24 18 27
-36 28 -100 86 -144 128 -76 76 -236 266 -236 281 0 4 10 -6 22 -22 30 -40
231 -241 298 -297 30 -26 98 -76 150 -111 85 -57 109 -68 225 -100 123 -35
183 -41 226 -23 9 3 36 4 60 1 l44 -5 -40 22 c-43 23 -147 92 -178 117 -59 47
-269 248 -295 282 -8 10 49 -25 125 -76 76 -52 157 -104 178 -117 164 -93 332
-156 498 -186 132 -24 404 -24 517 0 343 73 579 225 851 547 35 41 80 110 73
110 -4 0 2 8 13 18 17 15 26 30 35 60 1 4 10 16 20 26 9 10 15 23 12 28 -3 4
-2 8 3 8 4 0 14 15 22 33 7 17 20 45 27 61 8 16 11 32 9 36 -3 5 0 10 5 12 6
2 12 10 14 18 2 8 6 23 10 32 4 9 9 22 10 30 1 7 9 33 16 58 7 25 14 56 15 70
2 14 4 25 5 25 3 0 8 28 14 75 3 19 8 51 11 70 3 19 8 82 10 140 4 109 -10
168 -41 171 -28 3 -32 4 -40 12 -16 15 52 5 71 -11z m-4435 -62 c0 -5 -2 -10
-4 -10 -3 0 -8 5 -11 10 -3 6 -1 10 4 10 6 0 11 -4 11 -10z m107 -28 c8 -19
13 -35 11 -37 -2 -2 -24 6 -50 18 -60 26 -66 54 -12 54 32 0 38 -5 51 -35z
m-67 -29 c0 4 10 2 23 -5 12 -7 24 -13 27 -13 32 -4 78 -92 115 -220 10 -33
22 -67 28 -76 15 -24 56 -45 100 -53 26 -5 41 -14 46 -29 5 -12 45 -106 90
-208 l82 -187 -25 -36 c-36 -54 -49 -101 -44 -167 l4 -59 -34 32 c-92 88 -209
253 -282 398 -55 108 -108 287 -130 437 -22 154 -26 217 -10 193 5 -8 10 -11
10 -7z m6300 -97 c0 -2 -8 -10 -17 -17 -16 -13 -17 -12 -4 4 13 16 21 21 21
13z m-160 -36 c0 -6 -7 -13 -16 -17 -10 -3 -29 -19 -44 -35 -15 -15 -31 -28
-36 -28 -5 0 -16 -9 -24 -20 -8 -11 -18 -20 -22 -20 -4 0 -16 -8 -26 -17 -10
-10 -38 -34 -62 -53 -24 -19 -53 -44 -66 -55 -12 -12 -37 -32 -55 -45 -18 -14
-39 -33 -48 -42 -8 -9 -18 -15 -23 -12 -4 3 -8 1 -8 -3 0 -5 -24 -27 -52 -48
-70 -53 -69 -52 -98 -76 -38 -32 -140 -100 -140 -94 0 3 -19 -5 -42 -18 -129
-71 -79 -24 147 139 151 108 204 147 353 261 35 26 71 54 80 61 198 147 182
137 182 122z m108 -11 c-9 -5 -24 -16 -33 -25 -8 -8 -15 -11 -15 -6 0 13 53
52 60 45 3 -2 -3 -9 -12 -14z m-82 -61 c-13 -13 -41 -36 -62 -53 -20 -16 -47
-39 -60 -50 -12 -11 -32 -27 -44 -35 -12 -8 -35 -26 -50 -40 -15 -14 -45 -38
-65 -55 -21 -16 -44 -36 -51 -42 -7 -7 -17 -13 -22 -13 -6 0 -12 -6 -15 -14
-6 -15 -47 -29 -47 -16 0 5 9 12 20 15 11 3 20 11 20 16 0 5 7 9 15 9 8 0 15
4 15 9 0 5 9 13 20 16 11 4 18 10 15 15 -3 5 3 11 12 14 10 3 35 22 55 41 20
19 39 35 42 35 3 0 14 8 25 18 10 9 33 28 51 42 31 24 60 48 109 90 33 27 48
26 17 -2z m-1113 -156 c-3 -9 -10 -22 -14 -28 -5 -6 -7 -13 -4 -16 6 -6 -83
-90 -134 -128 -19 -14 -40 -31 -48 -38 -7 -7 -13 -11 -13 -8 0 4 -18 -3 -40
-14 -50 -26 -52 -19 -2 11 49 31 76 53 142 119 60 61 100 110 100 123 0 4 4 6
10 2 5 -3 6 -13 3 -23z m23 -784 c-93 -90 -221 -214 -283 -275 -63 -62 -118
-113 -121 -113 -11 1 552 550 563 550 5 0 -66 -73 -159 -162z m-82 109 c3 3 6
2 6 -4 0 -6 -17 -23 -37 -39 -21 -16 -43 -33 -49 -39 -29 -26 -65 -55 -69 -55
-3 0 -22 -16 -42 -35 -20 -19 -40 -35 -44 -35 -3 0 -19 -12 -36 -27 -45 -43
-72 -64 -148 -117 -38 -28 -72 -52 -75 -55 -33 -38 -433 -291 -459 -291 -6 0
-11 -3 -11 -7 0 -5 -24 -21 -53 -37 -28 -16 -85 -49 -124 -73 -133 -79 -88
-44 103 81 104 69 194 129 201 135 7 6 17 11 23 11 5 0 10 3 10 8 0 4 12 13
28 19 15 7 39 24 54 38 15 14 30 25 32 25 3 0 14 7 23 14 96 79 256 189 287
197 36 10 133 95 122 107 -6 5 10 21 78 75 21 18 61 51 89 74 38 33 54 40 67
33 10 -5 20 -6 24 -3z m-2729 -177 c3 -5 2 -10 -4 -10 -5 0 -13 5 -16 10 -3 6
-2 10 4 10 5 0 13 -4 16 -10z m2865 -66 c0 -2 -7 -4 -15 -4 -8 0 -15 4 -15 10
0 5 7 7 15 4 8 -4 15 -8 15 -10z m174 -106 c72 -46 70 -36 21 -144 -14 -30
-25 -58 -25 -63 0 -5 -9 -20 -21 -35 -11 -14 -18 -26 -14 -26 3 0 -2 -13 -12
-30 -20 -35 -29 -38 -29 -11 0 11 3 18 7 15 4 -2 5 15 3 38 -3 24 -6 59 -8 79
-3 32 -12 65 -32 129 -3 8 -5 17 -4 19 1 2 -3 7 -9 11 -12 7 33 60 51 60 4 0
37 -19 72 -42z m-642 -166 c-6 -5 -19 -17 -28 -28 -8 -10 -12 -12 -8 -4 12 26
26 40 38 40 7 0 7 -3 -2 -8z m2726 -48 c-9 -27 -19 -39 -31 -38 -9 1 -32 2
-49 3 l-33 1 40 27 c22 15 49 35 60 45 25 24 29 12 13 -38z m-755 -327 l18
-42 -35 -31 c-19 -17 -56 -48 -82 -70 -26 -21 -61 -51 -78 -66 -49 -45 -84
-32 -40 15 13 14 24 30 24 34 0 5 9 15 20 23 11 8 20 18 20 23 0 5 6 14 13 21
6 8 19 24 27 36 23 34 82 100 89 100 3 0 14 -19 24 -43z m-2559 3 c47 -7 64
-15 82 -37 13 -15 23 -31 24 -36 0 -16 92 -99 152 -138 l63 -41 -55 7 c-67 8
-141 31 -189 58 -34 19 -113 79 -136 102 -19 19 -49 70 -52 89 -3 15 1 17 24
11 16 -4 55 -11 87 -15z m2229 -65 c42 -18 64 -45 37 -45 -5 0 -10 -7 -10 -15
0 -8 -6 -15 -14 -15 -19 0 -88 78 -80 91 3 6 9 9 13 7 4 -2 28 -12 54 -23z
m414 -175 c14 -77 -2 -141 -49 -195 l-21 -24 -37 32 c-20 17 -53 45 -74 61
l-37 29 24 21 c13 12 43 37 66 56 23 19 57 47 74 62 l32 27 9 -22 c5 -12 11
-33 13 -47z m-352 -47 c-44 -40 -56 -39 -20 3 14 16 25 32 25 36 0 4 7 5 16 1
13 -5 9 -13 -21 -40z"/>
<path d="M7123 10609 c-29 -4 -74 -17 -100 -30 -49 -23 -167 -134 -158 -149 3
-4 -2 -13 -10 -20 -8 -7 -13 -16 -10 -20 3 -5 1 -11 -5 -15 -6 -4 -8 -11 -5
-16 4 -5 2 -9 -4 -9 -5 0 -8 -11 -6 -25 1 -14 -1 -25 -5 -25 -11 0 0 -126 14
-148 4 -7 9 -21 11 -32 6 -33 60 -104 110 -144 110 -91 261 -105 391 -38 74
38 151 127 164 187 1 6 6 16 12 23 6 6 7 12 3 12 -4 0 -3 6 2 13 13 17 7 177
-7 195 -2 1 -3 5 -4 10 -5 17 -32 68 -46 86 -89 113 -210 164 -347 145z"/>
<path d="M6009 8748 c-5 -18 -6 -38 -1 -34 7 8 12 36 6 36 -2 0 -4 -1 -5 -2z"/>
<path d="M8893 5402 c-28 -28 -28 -34 -3 -57 26 -24 32 -16 28 36 l-3 44 -22
-23z"/>
<path d="M2805 1363 c17 -15 71 -64 121 -108 172 -152 167 -149 178 -120 3 10
-19 33 -71 72 -41 32 -81 64 -88 71 -8 6 -18 12 -23 12 -6 0 -12 4 -14 8 -1 5
-32 28 -68 51 -50 33 -58 37 -35 14z"/>
<path d="M3475 10358 c-197 -25 -365 -153 -452 -346 -15 -31 -26 -60 -25 -65
1 -4 -3 -27 -8 -52 -50 -225 84 -492 301 -599 79 -39 185 -66 260 -66 92 0
223 44 316 105 47 32 153 143 153 161 0 8 3 14 8 14 7 0 16 18 53 110 28 71
35 230 14 310 -74 280 -340 463 -620 428z m100 -691 c113 -62 109 -239 -8
-299 -169 -86 -337 121 -215 263 59 67 141 80 223 36z"/>
<path d="M9229 10336 c-59 -21 -229 -160 -229 -188 0 -4 -6 -13 -13 -20 -7 -7
-35 -42 -62 -78 -65 -83 -78 -100 -90 -114 -34 -36 -175 -226 -175 -234 0 -6
-4 -12 -10 -14 -5 -2 -6 -9 -1 -17 7 -10 22 5 61 58 28 39 55 71 60 71 5 0 10
6 12 14 4 16 90 114 207 238 78 81 87 88 123 88 52 0 96 20 136 63 32 33 65
104 56 119 -13 20 -41 25 -75 14z"/>
<path d="M960 6242 c0 -15 52 -62 62 -56 4 3 8 0 8 -6 0 -6 5 -8 10 -5 6 3 10
1 10 -4 0 -6 3 -10 8 -9 4 0 14 -1 22 -5 23 -9 90 -29 103 -31 7 -1 18 -5 25
-9 6 -5 12 -6 12 -2 0 3 8 1 18 -4 22 -11 63 -21 107 -26 17 -1 30 -3 30 -4 0
-5 41 -11 90 -15 28 -3 62 -7 77 -10 15 -4 29 -2 33 4 3 6 -1 7 -9 4 -9 -3
-16 -1 -16 6 0 6 -4 8 -10 5 -5 -3 -16 -3 -22 2 -12 7 -18 9 -53 16 -8 2 -17
6 -21 9 -3 4 -12 4 -20 1 -8 -3 -14 -1 -14 4 0 5 -12 10 -26 11 -14 1 -31 5
-37 9 -7 4 -20 8 -29 9 -10 1 -19 2 -20 4 -2 1 -11 3 -20 6 -10 2 -26 6 -35 8
-10 3 -18 5 -18 6 0 2 -26 8 -60 15 -11 2 -31 6 -45 9 -14 3 -38 9 -55 12 -16
3 -36 11 -42 16 -7 6 -13 7 -13 2 0 -4 -11 3 -25 16 -14 13 -25 18 -25 12z"/>
<path d="M1915 5870 c3 -4 14 -10 25 -13 11 -3 18 -2 15 3 -3 4 -14 10 -25 13
-11 3 -18 2 -15 -3z"/>
<path d="M1975 5850 c3 -5 8 -10 11 -10 2 0 4 5 4 10 0 6 -5 10 -11 10 -5 0
-7 -4 -4 -10z"/>
<path d="M8400 2279 c-19 -12 -36 -21 -38 -20 -1 2 -89 -40 -195 -92 -291
-144 -404 -209 -646 -372 -90 -60 -171 -114 -179 -120 -22 -14 -33 -22 -61
-45 -13 -11 -27 -20 -30 -20 -3 0 -20 -13 -37 -28 -18 -15 -42 -34 -54 -42
-12 -8 -32 -24 -45 -35 -13 -11 -35 -29 -49 -40 -15 -11 -38 -29 -51 -41 -14
-11 -36 -29 -51 -40 -25 -18 -45 -35 -89 -72 -11 -10 -38 -31 -60 -47 -66 -50
-103 -81 -177 -146 l-57 -51 17 -37 c9 -20 20 -38 25 -39 4 -2 5 -8 2 -12 -6
-10 118 -140 133 -140 6 0 48 39 94 86 80 83 164 166 308 304 59 57 117 110
297 275 24 22 66 60 92 85 56 52 122 109 236 205 26 22 61 52 77 68 16 15 32
27 36 27 4 0 14 8 23 18 8 9 32 31 53 47 21 17 45 36 52 43 7 6 17 12 22 12 6
0 12 4 14 8 2 5 26 23 53 42 28 19 55 38 60 42 6 5 44 33 85 63 41 29 80 59
87 64 7 6 16 11 20 11 9 1 81 59 73 60 -3 0 -21 -10 -40 -21z"/>
<path d="M9390 1506 c0 -2 7 -6 15 -10 8 -3 15 -1 15 4 0 6 -7 10 -15 10 -8 0
-15 -2 -15 -4z"/>
<path d="M6015 619 c-33 -9 -102 -70 -124 -109 -21 -36 -22 -123 -3 -173 35
-92 147 -151 240 -127 106 26 171 111 166 216 -3 76 -30 121 -103 173 -36 26
-122 36 -176 20z"/>
</g>
</svg>
